<svg width="15" height="18" viewBox="0 0 15 18" fill="none" xmlns="http://www.w3.org/2000/svg">
<path fill-rule="evenodd" clip-rule="evenodd" d="M3.39775 0.696289C2.0489 0.696289 0.955444 1.78975 0.955444 3.1386C0.955444 4.48745 2.0489 5.5809 3.39775 5.5809H11.6024C12.9512 5.5809 14.0447 4.48745 14.0447 3.1386C14.0447 1.78975 12.9512 0.696289 11.6024 0.696289H3.39775ZM3.39775 6.55786C2.0489 6.55786 0.955444 7.65132 0.955444 9.00017C0.955444 10.349 2.0489 11.4425 3.39775 11.4425H8.07834C9.42719 11.4425 10.5207 10.349 10.5207 9.00017C10.5207 7.65132 9.42719 6.55786 8.07835 6.55786H3.39775Z" fill="url(#paint0_linear_2432_104096)"/>
<path fill-rule="evenodd" clip-rule="evenodd" d="M5.98976 3.1386C5.98976 4.48745 4.86279 5.5809 3.4726 5.5809C2.08242 5.5809 0.955444 4.48745 0.955444 3.1386C0.955444 1.78975 2.08242 0.696289 3.4726 0.696289C4.86279 0.696289 5.98976 1.78975 5.98976 3.1386ZM5.98976 9.00017C5.98976 10.349 4.86279 11.4425 3.4726 11.4425C2.08242 11.4425 0.955444 10.349 0.955444 9.00017C0.955444 7.65132 2.08242 6.55786 3.4726 6.55786C4.86279 6.55786 5.98976 7.65132 5.98976 9.00017ZM3.4726 17.3039C4.86279 17.3039 5.98976 16.2105 5.98976 14.8616C5.98976 13.5128 4.86279 12.4193 3.4726 12.4193C2.08242 12.4193 0.955444 13.5128 0.955444 14.8616C0.955444 16.2105 2.08242 17.3039 3.4726 17.3039Z" fill="url(#paint1_linear_2432_104096)"/>
<defs>
<linearGradient id="paint0_linear_2432_104096" x1="-3.57544" y1="-2.96717" x2="1.60156" y2="16.6361" gradientUnits="userSpaceOnUse">
<stop stop-color="#DE0B76"/>
<stop offset="1" stop-color="#F58A25" stop-opacity="0"/>
</linearGradient>
<linearGradient id="paint1_linear_2432_104096" x1="2.96917" y1="-0.280634" x2="14.7536" y2="19.2594" gradientUnits="userSpaceOnUse">
<stop stop-color="#C21E71"/>
<stop offset="1" stop-color="#DE5948" stop-opacity="0.457094"/>
</linearGradient>
</defs>
</svg>
